<svg width="160" height="30" fill="none" xmlns="http://www.w3.org/2000/svg"><path fill-rule="evenodd" clip-rule="evenodd" d="M78.344 27.842c2.659 1.461 6.052 2.068 9.282 2.068v.003c3.23-.041 6.623-.648 9.2-2.067v-9.89H90.24v6.727c-.817.323-1.715.444-2.657.444s-1.842-.12-2.617-.444V5.227c.817-.324 1.679-.444 2.617-.444.94 0 1.881.12 2.657.444v6.73h6.584v-9.89C94.211.607 90.898 0 87.626 0c-3.271 0-6.665.648-9.282 2.067v25.775Zm21.343-.162c2.659 1.5 6.011 2.23 9.488 2.23 3.434-.041 6.828-.73 9.404-2.23V2.188C115.961.69 112.69 0 109.175 0c-3.515 0-6.87.73-9.488 2.188V27.68Zm9.449-22.856c1.144 0 2.086.162 2.861.486v19.252c-.817.365-1.755.527-2.861.527-1.105 0-2.047-.162-2.823-.527V5.31c.779-.324 1.679-.486 2.823-.486Zm20.933 14.142h-1.759v10.579h-6.665V.365h8.424c4.009 0 7.034.81 9.405 2.471v13.66c-2.33 1.622-5.399 2.47-9.405 2.47Zm2.782-13.577c-.612-.444-1.433-.647-2.823-.647h-1.801v9.848h1.801c1.349 0 2.166-.204 2.823-.607V5.39Zm20.564 13.577v10.579H160V2.147C157.587.73 154.236 0 150.964 0c-3.271 0-6.665.727-9.077 2.147v27.398h6.623V18.966h4.905ZM150.961 4.58c.9 0 1.759.162 2.454.485h-.003v9.28h-4.906v-9.28c.696-.324 1.555-.485 2.455-.485ZM27.684 22.139V5.24h3.152v16.9h-3.152Zm33.77-3.752v3.247l9.033-3.316h.021v-3.332h-.021l-9.033-3.332v3.243l4.634 1.745-4.634 1.745Zm-9.19 5.577 5.31-16.899h3.152l-5.31 16.9h-3.153ZM9.061 11.798v3.24l-4.638 1.748 4.638 1.758v3.247L.017 18.459H0V15.13h.017l9.045-3.333Zm13.29-.445c.9.976 1.37 2.267 1.315 3.587v7.199h-3.152v-6.537a2.937 2.937 0 0 0-.66-2.012 2.194 2.194 0 0 0-1.756-.756c-1.974 0-2.963 1.359-2.963 4.071v5.234h-3.153V10.32h3.152v1.066a5.106 5.106 0 0 1 3.757-1.418 4.536 4.536 0 0 1 3.46 1.384Zm26.31 10.786h-2.63l-2.578-6.962-2.604 6.962h-2.63L33.8 10.3h3.37l2.485 7.08 2.56-7.08h2.463l2.562 7.102 2.484-7.102h3.37L48.67 22.139h-.009Z" fill="#F7DD43"/></svg>